<svg width="133" height="119" viewBox="0 0 133 119" fill="none" xmlns="http://www.w3.org/2000/svg">
<path fill-rule="evenodd" clip-rule="evenodd" d="M117.384 50.7241C115.755 50.3123 114.117 50.3123 112.471 50.7241C113.006 49.0177 113.707 47.3794 114.577 45.8096C114.373 45.1212 113.905 44.7702 113.173 44.7565C112.259 45.0265 111.616 45.6116 111.243 46.5117C110.562 47.7572 109.977 49.044 109.488 50.373C109.133 50.6669 108.724 50.7838 108.26 50.7241C105.677 48.6003 103.981 45.909 103.172 42.6503C100.84 39.7606 97.9744 37.5958 94.574 36.1562C93.0534 36.0393 91.5325 35.9221 90.012 35.8052C88.8802 34.7157 87.8275 33.5456 86.8537 32.2949C86.241 32.1296 85.656 31.8955 85.099 31.5928C80.303 31.3588 75.5073 31.3588 70.7112 31.5928C64.3977 34.2052 57.9642 36.3114 51.4104 37.9114C54.6856 36.0393 57.9611 34.167 61.2362 32.2949C61.656 32.0652 61.656 31.8897 61.2362 31.7683C53.5114 33.8197 46.2588 36.9204 39.479 41.0707C39.1698 41.3192 38.9361 41.612 38.7771 41.9483C35.5171 39.4057 32.0664 39.1716 28.4249 41.2462C28.532 41.9283 28.532 42.6303 28.4249 43.3524C25.3723 50.7585 22.3895 58.1888 19.4763 65.643C19.7753 66.9474 20.4771 67.5908 21.5819 67.5736C23.0245 64.1023 24.3697 60.5919 25.6175 57.0427C27.2547 56.4459 28.9508 56.0949 30.7059 55.9896C29.7564 60.0984 29.5225 64.1939 30.0041 68.2757C28.7079 68.9469 27.3042 69.1224 25.793 68.8022C24.9119 68.1535 24.0346 67.5101 23.161 66.8716C22.5531 66.9537 22.2606 67.3047 22.2837 67.9247C24.0026 70.874 26.5761 71.9271 30.0041 71.084C33.863 88.2256 44.2737 99.1662 61.2362 103.905C71.2583 106.616 80.9673 105.797 90.3629 101.448C92.5516 99.7707 94.8912 98.4838 97.3814 97.5869C96.6279 98.3722 95.8092 99.0742 94.9249 99.6931C95.3593 99.6661 95.7103 99.7243 95.9777 99.8686C94.0416 101.747 92.0529 103.561 90.012 105.31C89.348 105.651 88.6462 105.885 87.9064 106.012C88.5384 106.123 88.6553 106.357 88.2574 106.714C82.5833 109.33 76.6176 110.383 70.3603 109.873C62.3662 109.366 54.7631 107.377 47.5502 103.905C41.4189 100.844 35.5701 97.4511 30.0041 93.7256C38.9179 107.141 51.4343 114.746 67.5529 116.543C68.0477 116.672 68.3986 116.964 68.6056 117.42C65.2947 117.932 62.0192 117.756 58.7798 116.894C54.4936 115.707 50.2825 114.42 46.1465 113.032C46.7957 114.213 47.6144 115.266 48.603 116.192C31.8377 109.367 20.0817 97.49 13.3352 80.5618C13.5164 82.5329 13.5164 84.5222 13.3352 86.5294C6.19786 69.4896 6.66575 52.64 14.7389 35.9807C23.2364 19.5319 36.513 9.0594 54.5687 4.56331C63.8833 1.90051 73.241 1.66649 82.6426 3.86124C90.3362 5.55097 97.8225 7.8912 105.102 10.8819C107.301 11.9836 109.407 13.2707 111.418 14.7432C112.524 15.7788 113.226 17.0074 113.524 18.4291C111.698 18.4248 110.002 17.9567 108.435 17.025C107.709 17.7111 107.475 18.5302 107.734 19.4822C111.796 21.9076 115.189 25.0669 117.91 28.9601C118.184 29.4669 118.126 29.9349 117.735 30.3642C116.962 29.7436 116.143 29.3341 115.278 29.1356C116.399 30.787 117.685 32.3081 119.139 33.699C117.396 33.2453 115.641 32.6602 113.875 31.9438C113.407 31.7098 112.939 31.7098 112.471 31.9438C115.867 35.6402 118.967 39.5602 121.771 43.7034C122.927 45.5481 123.688 47.5374 124.052 49.671C123.871 51.6694 122.818 52.547 120.893 52.3037C120.031 51.4584 119.388 50.464 118.963 49.3199C118.559 47.7568 118.091 46.2358 117.559 44.7565C117.384 46.7423 117.326 48.7316 117.384 50.7241Z" fill="#F5C3A6"/>
<path fill-rule="evenodd" clip-rule="evenodd" d="M38.7771 41.9484C39.8029 43.2623 40.0955 44.7833 39.6544 46.5118C38.176 49.3552 36.1287 51.6952 33.5133 53.5325C34.4362 54.3472 35.489 54.9907 36.6716 55.4631C39.3074 57.6452 39.8337 60.2779 38.2507 63.3614C37.3576 65.2082 36.2463 66.9047 34.917 68.4513C33.3611 69.5676 31.7235 70.4452 30.004 71.0841C26.576 71.9273 24.0026 70.8742 22.2837 67.9248C22.2606 67.3049 22.5531 66.9538 23.161 66.8717C24.0346 67.5102 24.9119 68.1537 25.7929 68.8024C27.3042 69.1225 28.7079 68.947 30.004 68.2758C34.5567 66.5846 36.6038 63.3084 36.1452 58.4469C34.7927 56.5591 32.9796 55.7398 30.7059 55.9897C28.9508 56.095 27.2547 56.446 25.6175 57.0428C24.3697 60.5921 23.0245 64.1024 21.5819 67.5738C20.4771 67.591 19.7752 66.9475 19.4763 65.6431C22.3894 58.1889 25.3723 50.7586 28.4249 43.3525C28.532 42.6305 28.532 41.9284 28.4249 41.2463C32.0663 39.1717 35.517 39.4059 38.7771 41.9484Z" fill="#110F0E"/>
<path fill-rule="evenodd" clip-rule="evenodd" d="M80.537 40.1931C82.1435 40.6646 82.6699 41.7176 82.1161 43.3524C79.8755 48.0692 77.8282 52.8664 75.975 57.7447C76.3441 57.797 76.6951 57.7388 77.0277 57.5692C78.6869 56.2613 80.4415 55.0913 82.2916 54.0589C83.9978 53.5029 84.5824 54.0294 84.0462 55.6385C81.8371 56.9167 79.7316 58.3208 77.7296 59.8509C78.7606 61.8164 79.9302 63.6888 81.2388 65.4674C82.3867 65.7125 83.5563 65.7125 84.748 65.4674C84.4564 67.7239 83.1696 68.6015 80.8879 68.1002C80.0295 67.2416 79.1522 66.364 78.256 65.4674C77.4316 63.8134 76.4371 62.2924 75.2731 60.904C74.812 61.1894 74.4025 61.5404 74.0449 61.9571C73.3006 63.8815 72.8328 65.8708 72.6412 67.9247C71.6358 68.1146 70.9339 67.6463 70.5356 66.5205C70.8459 63.76 71.5477 61.0687 72.6412 58.4468C75.1956 52.2879 77.8275 46.2035 80.537 40.1931Z" fill="#0F0F0E"/>
<path fill-rule="evenodd" clip-rule="evenodd" d="M117.384 50.7241C117.384 50.9583 117.384 51.1921 117.384 51.4262C117.443 51.8903 117.327 52.2999 117.033 52.6548C116.027 52.7191 115.092 52.8946 114.225 53.1814C113.05 53.1235 111.88 53.1821 110.716 53.3569C109.772 54.8354 109.07 56.4151 108.611 58.0958C108.111 58.8032 107.877 59.6221 107.909 60.5531C107.58 62.0397 107.464 63.561 107.558 65.1165C110.34 65.5381 112.796 64.836 114.927 63.0103C115.437 63.9869 115.32 64.8644 114.576 65.643C107.582 69.7831 104.482 67.8524 105.277 59.851C106.01 57.5907 106.771 55.3676 107.558 53.1814C105.955 53.3278 105.429 52.6257 105.979 51.0752C106.695 50.7512 107.455 50.6343 108.26 50.7241C108.724 50.7838 109.133 50.6669 109.488 50.3731C109.977 49.0441 110.561 47.7572 111.243 46.5118C111.615 45.6117 112.259 45.0265 113.173 44.7566C113.905 44.7703 114.373 45.1213 114.576 45.8097C113.707 47.3795 113.005 49.0178 112.471 50.7241C114.117 50.3124 115.755 50.3124 117.384 50.7241Z" fill="#11100F"/>
<path fill-rule="evenodd" clip-rule="evenodd" d="M37.0225 43.3525C34.1911 45.7368 32.4364 48.7792 31.7586 52.4794C31.5629 52.9322 31.212 53.2246 30.7059 53.357C29.4267 53.7062 28.14 53.9987 26.8457 54.2345C27.9526 50.2061 29.5903 46.403 31.7586 42.826C33.3963 42.5919 35.0339 42.5919 36.6716 42.826C36.8667 42.9604 36.9835 43.136 37.0225 43.3525Z" fill="#EFC0A4"/>
<path fill-rule="evenodd" clip-rule="evenodd" d="M37.0224 43.3525C37.4235 44.254 37.3649 45.1902 36.8469 46.1608C35.4646 48.5362 33.7686 50.6424 31.7585 52.4794C32.4364 48.7791 34.191 45.7368 37.0224 43.3525Z" fill="#F2EFE0"/>
<path fill-rule="evenodd" clip-rule="evenodd" d="M102.294 45.8098C103.974 46.0285 104.618 46.9647 104.224 48.6181C103.522 49.807 102.528 50.3336 101.241 50.1977C100.784 49.9155 100.55 49.5058 100.54 48.9691C101.193 47.9374 101.777 46.8843 102.294 45.8098Z" fill="#141413"/>
<path fill-rule="evenodd" clip-rule="evenodd" d="M50.0065 52.1284C53.6239 52.5349 54.9693 54.5242 54.0422 58.096C52.9368 62.3593 50.4217 65.4599 46.4973 67.3983C43.5959 67.9519 42.075 66.7233 41.9353 63.7125C42.5926 58.3835 45.2831 54.5221 50.0065 52.1284Z" fill="#0E0E0D"/>
<path fill-rule="evenodd" clip-rule="evenodd" d="M65.0963 52.1284C68.5283 52.7034 69.7565 54.6927 68.781 58.096C67.6622 62.3701 65.1472 65.4712 61.2361 67.3983C59.1716 68.073 57.7097 67.4296 56.8496 65.4677C56.5144 59.0817 59.2632 54.6355 65.0963 52.1284Z" fill="#0E0D0D"/>
<path fill-rule="evenodd" clip-rule="evenodd" d="M117.384 51.4263C117.79 54.7579 117.849 58.1513 117.559 61.6062C117.472 62.0008 117.297 62.3518 117.033 62.6593C116.507 60.3288 115.981 57.9888 115.454 55.6387C115.035 54.8011 114.626 53.9818 114.226 53.1814C115.092 52.8946 116.028 52.7191 117.033 52.6549C117.327 52.3 117.444 51.8903 117.384 51.4263Z" fill="#F4C2A6"/>
<path fill-rule="evenodd" clip-rule="evenodd" d="M49.6558 54.5856C50.3461 54.5017 50.9897 54.6186 51.5859 54.9366C51.9091 59.3797 50.2131 62.8314 46.4975 65.2921C45.091 65.7892 44.2723 65.3209 44.041 63.888C44.9773 60.1979 46.8488 57.0973 49.6558 54.5856Z" fill="#EEEBDC"/>
<path fill-rule="evenodd" clip-rule="evenodd" d="M64.3946 54.5856C65.0848 54.5017 65.7284 54.6186 66.3246 54.9366C66.4706 59.2666 64.7746 62.7187 61.2362 65.2921C59.8385 65.7302 59.0195 65.2619 58.7798 63.888C59.7262 60.1723 61.5981 57.0716 64.3946 54.5856Z" fill="#EEEBDC"/>
<path fill-rule="evenodd" clip-rule="evenodd" d="M99.4869 55.6388C100.698 55.6001 101.4 56.1853 101.592 57.3939C100.307 60.6069 99.196 63.8831 98.2587 67.2228C97.7018 67.6535 97.2336 67.5366 96.855 66.8718C96.6209 65.5846 96.6209 64.2977 96.855 63.0104C97.8853 60.6052 98.7626 58.1479 99.4869 55.6388Z" fill="#121211"/>
<path fill-rule="evenodd" clip-rule="evenodd" d="M30.7059 55.9896C32.9797 55.7397 34.7928 56.559 36.1452 58.4468C36.6039 63.3083 34.5567 66.5845 30.0041 68.2758C29.5225 64.1939 29.7564 60.0985 30.7059 55.9896Z" fill="#F6F3E3"/>
<path fill-rule="evenodd" clip-rule="evenodd" d="M108.611 58.0959C108.642 59.0269 108.409 59.8458 107.909 60.5532C107.877 59.6222 108.111 58.8033 108.611 58.0959Z" fill="#9C9A90"/>
</svg>
